<svg xmlns="http://www.w3.org/2000/svg" width="509" height="388" viewBox="0 0 509 388">
  <defs>
    <style>
      .cls-1 {
        fill: #739cb2;
        fill-rule: evenodd;
      }
    </style>
  </defs>
  <path id="Relleno_de_color_1" data-name="Relleno de color 1" class="cls-1" d="M285,35l9,1,1,2c4.009,23.351-13.127,32.106-32,37-0.123,8.654-1.1,20.707,1,25,45.707-.982,68.506,13.609,77,49,25.526,7.625,48.566,33.024,25,61-6.169,7.324-18.807,5.683-26,12-24.119,34.7-27.429,43-87,43-16.265,0-32.741.819-44-4-11.413-4.885-23.828-15.728-30-26l-7-14-20-7c-15.349-11.475-15.861-46.732,0-58l21-7c1.983-26.3,25.034-44.432,49-49l30-1q-0.5-12.5-1-25c-20.937.717-35.54-15.154-31-36l3-1c14.364-6.216,27.146,7.492,34,13C266.09,45.345,273.591,40.3,285,35ZM232,48c-1.337,8.1,4.792,11.6,10,16h10C250.073,54.663,242.871,48.49,232,48Zm45,0c-3.817,2.609-21.756,16.471-5,16,4.744-2.271,7.769-4.147,10-9q1-3,2-6l-1-1h-6Zm-30,63-27,1c-15.833,3.8-29.324,17.887-35,32-4.423,11-3,28.111-3,43,0,54.492,20.183,65,75,65,13.666,0,31.446,1.948,42-2,29.533-11.048,44.186-70.028,28-109C315.213,112.619,288.605,110.137,247,111Zm-28,50c25.289-1.151,32.969,29.513,14,40-18.816,10.4-40.057-15.913-26-31C209.734,164.724,214.154,164.031,219,161Zm65,0,16,2c11.667,13.738,12.884,47.175-15,40C261.864,197.047,267.927,169.885,284,161Zm-118,1c-15.5,9.026-22.436,42.173,3,46l1-1V163Zm179,0c-4,8.364-3.866,34.917-1,45h5C363.332,197.723,368.417,165.732,345,162Zm-122,9-6,2c-1.947,3.526-4.321,7.861-2,13l5,6c6.483-.034,8.682-0.832,11-5C236.612,178.533,229.387,173.849,223,171Zm64,0-6,4-2,6,4,9c3.582,1.078,5.4,2.335,9,1l7-6c0.11-6.628-.781-8.457-3-12Z"/>
</svg>
